<?xml version="1.0" standalone="no"?>
<!DOCTYPE svg PUBLIC "-//W3C//DTD SVG 20010904//EN"
 "http://www.w3.org/TR/2001/REC-SVG-20010904/DTD/svg10.dtd">
<svg version="1.0" xmlns="http://www.w3.org/2000/svg"
 width="512.000000pt" height="512.000000pt" viewBox="0 0 512.000000 512.000000"
 preserveAspectRatio="xMidYMid meet">

<g transform="translate(0.000000,512.000000) scale(0.100000,-0.100000)"
fill="#FF4251" stroke="none">
<path d="M387 5106 c-70 -25 -94 -63 -147 -227 -107 -328 -100 -686 22 -1012
l41 -108 -46 -97 c-149 -318 -226 -616 -247 -960 -37 -624 159 -1241 554
-1742 76 -97 299 -320 396 -396 578 -456 1316 -647 2025 -525 989 171 1776
883 2040 1846 162 591 105 1212 -162 1777 l-46 96 41 110 c109 289 127 614 51
916 -56 221 -115 318 -203 331 -97 15 -155 -31 -187 -146 -23 -83 -51 -136
-118 -224 -56 -73 -168 -193 -193 -206 -15 -8 -36 3 -116 64 -136 102 -263
179 -427 258 -249 120 -470 188 -746 230 -170 25 -495 30 -649 10 -477 -64
-878 -225 -1246 -502 l-95 -71 -37 29 c-114 91 -276 316 -289 399 -18 118
-116 186 -216 150z m1470 -2262 c84 -64 83 -185 -1 -249 -95 -72 -229 -17
-252 103 -7 37 17 110 44 135 60 55 146 59 209 11z m1593 6 c35 -25 70 -90 70
-130 0 -42 -37 -108 -72 -130 -50 -30 -92 -35 -144 -15 -115 44 -139 195 -43
268 19 14 43 27 54 30 39 11 103 -1 135 -23z"/>
</g>
</svg>
